
<svg width="37px" height="37px" viewBox="0 0 37 37" version="1.1" xmlns="http://www.w3.org/2000/svg" xmlns:xlink="http://www.w3.org/1999/xlink">
    <!-- Generator: Sketch 51.2 (57519) - http://www.bohemiancoding.com/sketch -->
    <desc>Created with Sketch.</desc>
    <defs></defs>
    <g id="Symbols" stroke="none" stroke-width="1" fill="none" fill-rule="evenodd">
        <g id="ic_ideologia/on" transform="translate(1.000000, 1.000000)" stroke="#4B4B4B">
            <g id="Group">
                <g id="Group-53">
                    <circle id="Oval" cx="17.5" cy="17.5" r="17.5"></circle>
                    <path d="M2.625,21.4375 L4.45772996,21.4375 C5.46587764,21.4375 6.29078481,20.413086 6.29078481,19.1610244 L6.29078481,9.71397564 C6.29078481,8.46191404 7.31420253,7.4375 8.56504641,7.4375 L19.6007384,7.4375 C20.8515823,7.4375 21.875,8.46191404 21.875,9.71397564 L21.875,19.1610244 C21.875,20.413086 20.8515823,21.4375 19.6007384,21.4375 L4.3544135,21.4375" id="Stroke-1" stroke-linecap="round" stroke-linejoin="round"></path>
                    <path d="M9,11 L14.7039742,11" id="Stroke-3" stroke-linecap="round" stroke-linejoin="round"></path>
                    <path d="M9,14 L17.7460937,14" id="Stroke-7" stroke-linecap="round" stroke-linejoin="round"></path>
                    <path d="M9,17 L17.7460937,17" id="Stroke-9" stroke-linecap="round" stroke-linejoin="round"></path>
                    <path d="M31.3019669,25.7326858 L29.7532341,25.7326858 C28.9017733,25.7326858 28.2048272,24.727027 28.2048272,23.4978885 L28.2048272,16.3944257 C28.2048272,15.1652872 27.177989,14.1596284 25.9229645,14.1596284 L17.31969,14.1596284 C16.0649914,14.1596284 15.0378272,15.1652872 15.0378272,16.3944257 L15.0378272,23.4978885 C15.0378272,24.727027 16.0649914,25.7326858 17.31969,25.7326858 L29.8405968,25.7326858" id="Stroke-13" fill="#F8F8F8" stroke-linecap="round" stroke-linejoin="round"></path>
                    <path d="M18,17 L21.0510896,17" id="Stroke-15" stroke-linecap="round" stroke-linejoin="round"></path>
                    <path d="M18,20 L25.2463379,20" id="Stroke-19" stroke-linecap="round" stroke-linejoin="round"></path>
                    <path d="M18,23 L25.2463379,23" id="Stroke-21" stroke-linecap="round" stroke-linejoin="round"></path>
                </g>
            </g>
        </g>
    </g>
</svg>