
<svg width="37px" height="37px" viewBox="0 0 37 37" version="1.1" xmlns="http://www.w3.org/2000/svg" xmlns:xlink="http://www.w3.org/1999/xlink">
    <!-- Generator: Sketch 51.2 (57519) - http://www.bohemiancoding.com/sketch -->
    <desc>Created with Sketch.</desc>
    <defs>
        <polygon id="path-1" points="5.6875 26.25 28.875 26.25 28.875 9.1875 5.6875 9.1875"></polygon>
    </defs>
    <g id="Symbols" stroke="none" stroke-width="1" fill="none" fill-rule="evenodd">
        <g id="ic_noticia/on" transform="translate(1.000000, 1.000000)">
            <g id="Group">
                <g id="Group-54">
                    <circle id="Oval" stroke="#4B4B4B" cx="17.5" cy="17.5" r="17.5"></circle>
                    <path d="M10.0198854,15.5336022 L7.85369272,15.5336022 C6.66253555,15.5336022 5.6875,16.6598118 5.6875,18.0362903 L5.6875,23.3098118 C5.6875,24.6862903 6.66253555,25.8125 7.85369272,25.8125 C9.04520535,25.8125 10.0198854,24.6862903 10.0198854,23.3098118 L10.0198854,11.6901882 C10.0198854,10.3137097 11.1395945,9.1875 12.5081278,9.1875 L25.9492576,9.1875 C27.3177909,9.1875 28.4375,10.3137097 28.4375,11.6901882 L28.4375,23.3098118 C28.4375,24.6862903 27.3177909,25.8125 25.9492576,25.8125 L7.73176884,25.8125" id="Stroke-1" stroke="#4B4B4B" stroke-linecap="round" stroke-linejoin="round"></path>
                    <mask id="mask-2" fill="white">
                        <use xlink:href="#path-1"></use>
                    </mask>
                    <g id="Clip-4"></g>
                    <polygon id="Stroke-3" stroke="#4B4B4B" stroke-linecap="round" stroke-linejoin="round" mask="url(#mask-2)" points="11.8125 17.5 18.375 17.5 18.375 11.8125 11.8125 11.8125"></polygon>
                    <path d="M20.7333984,12 L23.6474609,12" id="Stroke-5" stroke="#4B4B4B" stroke-linecap="round" stroke-linejoin="round" mask="url(#mask-2)"></path>
                    <path d="M20.7333984,14.75 L26.0136719,14.75" id="Stroke-6" stroke="#4B4B4B" stroke-linecap="round" stroke-linejoin="round" mask="url(#mask-2)"></path>
                    <path d="M20.7333984,17.5 L26.0136719,17.5" id="Stroke-8" stroke="#4B4B4B" stroke-linecap="round" stroke-linejoin="round" mask="url(#mask-2)"></path>
                    <path d="M11.5507812,20.25 L25.9257812,20.25" id="Stroke-9" stroke="#4B4B4B" stroke-linecap="round" stroke-linejoin="round" mask="url(#mask-2)"></path>
                    <path d="M11.5507812,23 L25.9257812,23" id="Stroke-10" stroke="#4B4B4B" stroke-linecap="round" stroke-linejoin="round" mask="url(#mask-2)"></path>
                </g>
            </g>
        </g>
    </g>
</svg>