<?xml version="1.0" encoding="utf-8"?>
<!-- Generator: Adobe Illustrator 22.1.0, SVG Export Plug-In . SVG Version: 6.00 Build 0)  -->
<svg version="1.1" id="Layer_1" xmlns="http://www.w3.org/2000/svg" xmlns:xlink="http://www.w3.org/1999/xlink" x="0px" y="0px"
	 width="1736px" height="306.5px" viewBox="0 0 1736 306.5" style="enable-background:new 0 0 1736 306.5;" xml:space="preserve">
<style type="text/css">
	.st0{opacity:0.2044;fill:#73CAA6;enable-background:new    ;}
	.st1{opacity:0.55;fill:#FF7E7E;enable-background:new    ;}
	.st2{opacity:0.1951;fill:#85C974;enable-background:new    ;}
	.st3{opacity:0.55;fill:#FFA865;enable-background:new    ;}
	.st4{opacity:0.55;fill:#BD6BE5;enable-background:new    ;}
	.st5{opacity:0.2992;fill:#8591E7;enable-background:new    ;}
</style>
<title>Artboard</title>
<desc>Created with Sketch.</desc>
<g id="Page-1">
	<g id="Artboard">
		<path id="_x36_" class="st0" d="M0,183.4c112.4,24.7,204.6,37.2,276.7,37.4c86.8,0.3,185.2-24.1,311.2-24.1
			c86,0,176-26.6,289-26.6c77,0,170.6,43.6,291.8,43.6c138.9,0,169.5-30.3,289.7-43.6c120.2-13.3,204.7-8,277.5,0
			c0,10.3,0,16.1,0,17.4c-36.8-2.9-189.9-3.1-268.2,2.4s-209.3,48.6-299.1,48.7c-89.8,0-251.3-24.8-300.8-24.9
			c-49.4,0-224.7,14.6-292,14.6S354.7,244,276.7,244.7c-52.1,0.4-144.3-9.9-276.7-31V183.4z"/>
		<path id="_x35_" class="st1" d="M306,123.8C391.5,126.7,481.3,23,605.4,23c84.7,0,169.8,65.4,281,65.4
			c75.8,0,164.5-88.5,283.8-88.5c136.7,0,159.4,131.8,283.6,131.8S1583.2,1.9,1736,0v107.1c-152.8,1.9-158,97.3-282.1,97.3
			S1307,72.5,1170.2,72.5c-119.3,0-206.4,93.3-282.1,93.3c-111.3,0-185.4-77.3-296.2-77.3c-124.1,0-189.1,93-274.6,90.1
			C210.9,174.9,0,72.5,0,72.5c0,0,0-43.6,0-43.6C0,28.9,199.6,120.1,306,123.8z"/>
		<path id="_x34_" class="st2" d="M1497.6,56.1c-136.3,0-243.3,25.1-367.4,25.1c-84.6,0-169.7-16.3-281-16.3
			C773.5,64.9,684.9,87,565.6,87c-136.7,0-159.4-32.9-283.5-32.9S152.7,86.5,0,87l0-26.7C152.7,59.8,157.9,36,282.1,36
			s146.8,32.9,283.5,32.9c119.3,0,183.3-23.3,282.1-23.3c111.2,0,185.3,19.3,296.1,19.3c124.1,0,216.4-22.5,342.6-22.5
			c126.6,0,249.1,26.5,249.1,26.5v10.9C1735.5,79.8,1608.4,56.1,1497.6,56.1z"/>
		<path id="_x33_" class="st3" d="M294.3,166.8c87,3,104-60.2,255.4-49.2s216.8,91.6,324.8,91.6c77.1,0,163.9-80.8,285.3-80.8
			c139.1,0,163.6-46.5,289.9-46.5s131,87.5,286.4,85.6v35.7c-155.4,1.9-160.1-48.6-286.4-48.6s-150.8,46.5-289.9,46.5
			c-121.4,0-208.2,80.8-285.3,80.8c-113.2,0-241.2-121.3-327.3-121.3c-126.2,0-165.8,81.7-252.8,78.8C186,235.9,76.3,174.8,0,174.8
			c0,0,0-19.1,0-57.2C125.3,117.6,186,163.1,294.3,166.8z"/>
		<path id="_x32_" class="st4" d="M1736,87v61.1c-119.6,0-210.7,31.5-249.7,33c-58.5,2.3-182-25.9-255.5-25.9
			s-218.7,41.9-259.1,41.9c-65.9,0-116.5-30.8-259.3-30.4c-124.3,8.6-172.5,49.5-254.9,55.3s-173.4-5.3-289.7-24.9
			C67.5,180.2,23.8,149.6,0,132.6V87c13.9,0,57,52.9,173.7,71.4c104,16.5,200.9,20.1,283.8,8.3c82.9-11.8,132.7-60.4,254.9-60.4
			c106.7,0,191.5,69.2,259.3,69.2c99.5,0,183.4-69.2,259.1-69.2c111,0,143.4,69.1,255.5,60.4C1562.7,160.9,1661.7,86,1736,87z"/>
		<path id="_x31_" class="st5" d="M0,306.5v-49.8c119.6,0,180.5-32.4,249.7-39.9c69.2-7.5,203.9,29.3,255.5,31.5
			s175.2-39,259.1-31.5c83.9,7.5,116.5,25,259.3,24.8c124.3-7,148.1-11.9,230.3-24.8c82.2-12.8,198.1-16,314.3,0
			c100.3,13.8,144,38.7,167.8,52.6v37.1c-13.9,0-57-43.1-173.7-58.1c-104-13.4-206.4-1.2-289.3,8.4c-82.9,9.6-127.2,34.1-249.4,34.1
			c-106.7,0-191.5-56.3-259.3-56.3c-99.5,0-161.5,56.3-259.1,56.3c-111,0-143.4-56.2-255.5-49.2C173.3,246.4,74.3,307.3,0,306.5z"/>
	</g>
</g>
</svg>
