
<svg width="20px" height="20px" viewBox="0 0 20 20" version="1.1" xmlns="http://www.w3.org/2000/svg" xmlns:xlink="http://www.w3.org/1999/xlink">
    <!-- Generator: Sketch 50.2 (55047) - http://www.bohemiancoding.com/sketch -->
    <desc>Created with Sketch.</desc>
    <defs></defs>
    <g id="Page-1" stroke="none" stroke-width="1" fill="none" fill-rule="evenodd">
        <g id="MOB_tema" transform="translate(-218.000000, -1003.000000)">
            <g id="quem-buscam" transform="translate(0.000000, 450.000000)">
                <g id="compartilhar" transform="translate(82.000000, 553.000000)">
                    <g id="share/wts" transform="translate(136.000000, 0.000000)">
                        <g id="what">
                            <rect id="Rectangle-3-Copy-5" x="0" y="0" width="20" height="20"></rect>
                            <path d="M10,19 C7.2449627,19 5.04029842,17.511147 5.04029842,17.511147 L1.65611232,18.6150977 L2.75421489,15.3391981 C2.75421489,15.3391981 1,12.9108239 1,9.99973564 C1,5.02931414 5.02972449,1 10,1 C14.9702755,1 19,5.02931414 19,9.99973564 C19,14.9706859 14.9702755,19 10,19 Z" id="Stroke-1" stroke="#B4B4B4"></path>
                            <path d="M5.98744778,5.18526267 C5.98744778,5.18526267 6.2595673,5 6.40108931,5 L7.19361259,5 C7.19361259,5 7.40664047,5.04004236 7.50396789,5.27816095 C7.60179187,5.51627954 8.27017304,7.2044656 8.31982988,7.33473676 C8.36948673,7.46500792 8.4990911,7.78748242 8.29102891,8.07578744 C8.08296672,8.36462636 7.64747617,8.90386352 7.64747617,8.90386352 C7.64747617,8.90386352 7.47516691,9.07043975 7.62463402,9.33578715 C7.77410113,9.60166845 8.29947058,10.4777954 8.98622477,11.1398291 C9.67347554,11.801329 10.5146625,12.288778 10.9337663,12.4366678 C11.3533667,12.5850915 11.4452318,12.3875492 11.60612,12.1649136 C11.7670082,11.942812 12.2665561,11.2631596 12.2665561,11.2631596 C12.2665561,11.2631596 12.4388653,10.9914054 12.7780216,11.1579817 C13.1166813,11.3250918 14.7657852,12.1836001 14.7657852,12.1836001 C14.7657852,12.1836001 14.9663989,12.220439 14.9783165,12.461761 C14.9897376,12.7025491 15.1277836,13.4233116 14.5299152,14.1168454 C13.9325433,14.8103791 12.6618246,15.1312519 12.0599836,14.9502605 C11.4581426,14.769269 9.46888933,14.2097437 8.17135591,12.9091677 C6.8738225,11.6080578 5.82308361,10.238609 5.39305532,9.22900752 C4.96302702,8.21887215 4.98686231,7.61983839 5.01119416,7.33740625 C5.03502945,7.05497411 5.17307548,5.74638966 5.98744778,5.18526267 Z" id="Stroke-5" stroke="#B4B4B4"></path>
                        </g>
                    </g>
                </g>
            </g>
        </g>
    </g>
</svg>