<svg
  width="37px"
  height="37px"
  viewBox="0 0 37 37"
  version="1.1"
  xmlns="http://www.w3.org/2000/svg"
  xmlns:xlink="http://www.w3.org/1999/xlink"
>
  <g
    transform="translate(1, 1)"
    stroke="#4b4b4b"
    stroke-width="1"
    fill="none"
  >
    <circle cx="17.5" cy="17.5" r="17.5" />
    <g
      transform="translate(8.75, 6.125)"
      stroke-linecap="round"
      stroke-linejoin="round"
    >
      <path d="M16.0096379,4.70239087 L16.0096379,2.32037204 C16.0096379,1.04401827 14.9535047,0 13.6626752,0 L2.34696262,0 C1.05613318,0 -3.55271368e-15,1.04401827 -3.55271368e-15,2.32037204 L-3.55271368e-15,2.38235027 C-3.55271368e-15,3.6583726 1.05613318,4.70239087 2.34696262,4.70239087 L15.5905374,4.70239087 C16.8813668,4.70239087 17.9375,5.74640915 17.9375,7.02243148 L17.9375,19.5549594 C17.9375,20.8309817 16.8813668,21.875 15.5905374,21.875 L2.34696262,21.875 C1.05613318,21.875 -3.55271368e-15,20.8309817 -3.55271368e-15,19.5549594 L-3.55271368e-15,2.56894782" />
      <path d="M3.9375,4.8125 L3.9375,21.875" />
      <path d="M7.83291755,14.9170825 C8.94347428,16.0276392 10.7440257,16.0276392 11.8545825,14.9170825 C12.9651392,13.8065257 12.9651392,12.0059743 11.8545825,10.8954175 C10.7440257,9.78486082 8.94347428,9.78486082 7.83291755,10.8954175 C6.72236082,12.0059743 6.72236082,13.8065257 7.83291755,14.9170825 Z" />
      <path d="M11.8125,14.875 L14.875,17.9375" />
    </g>
  </g>
</svg>