<svg 
  width="37px" 
  height="37px" 
  viewBox="0 0 37 37" 
  version="1.1" 
  xmlns="http://www.w3.org/2000/svg" 
  xmlns:xlink="http://www.w3.org/1999/xlink"
>
  <defs>
    <path d="M0.192307692,17.5283889 C0.192307692,27.0806667 7.92192308,34.8242222 17.4576923,34.8242222 C26.9926923,34.8242222 34.7226923,27.0806667 34.7226923,17.5283889 C34.7226923,7.97688889 26.9926923,0.233333333 17.4576923,0.233333333 C7.92192308,0.233333333 0.192307692,7.97688889 0.192307692,17.5283889 Z" id="path-1" />
  </defs>
  <g
    transform="translate(1, 1)"
    stroke-width="1"
    fill="none"
  >
    <mask id="mask-2" fill="white">
      <use xlink:href="#path-1" />
    </mask>
    <use id="Clip-2" stroke="#4B4B4B" xlink:href="#path-1" />
      <path 
        d="M10.9656923,14.6311667 C10.9656923,18.2229444 13.8718462,21.1341667 17.4576154,21.1341667 C21.043,21.1341667 23.9495385,18.2229444 23.9495385,14.6311667 C23.9495385,11.0393889 21.043,8.12816667 17.4576154,8.12816667 C13.8718462,8.12816667 10.9656923,11.0393889 10.9656923,14.6311667 Z"
        stroke="#4B4B4B"
        stroke-linecap="round"
        stroke-linejoin="round"
        mask="url(#mask-2)"
      />
      <path
        d="M6.57973077,32.0754 C6.57973077,38.0934556 11.4501154,42.9720667 17.4574231,42.9720667 C23.4651154,42.9720667 28.3355,38.0934556 28.3355,32.0754 C28.3355,26.0573444 23.4651154,21.1787333 17.4574231,21.1787333 C11.4501154,21.1787333 6.57973077,26.0573444 6.57973077,32.0754 Z"
        stroke="#4B4B4B"
        stroke-linecap="round"
        stroke-linejoin="round"
        mask="url(#mask-2)"
      />
      <path
        d="M17.4575385,0.233061111 C7.92215385,0.233061111 0.192153846,7.97700556 0.192153846,17.5285056 C0.192153846,27.0803944 7.92215385,34.82395 17.4575385,34.82395 C26.9929231,34.82395 34.7229231,27.0803944 34.7229231,17.5285056 C34.7229231,7.97700556 26.9929231,0.233061111 17.4575385,0.233061111 Z"
        stroke="#4B4B4B"
        stroke-linecap="round"
        stroke-linejoin="round"
        mask="url(#mask-2)"
      />
      <polygon
        stroke="#4B4B4B"
        stroke-linecap="round"
        stroke-linejoin="round"
        mask="url(#mask-2)"
        points="17.4575385 23.8001167 18.7816776 26.3144009 21.608735 26.8493939 19.5997274 28.8606387 20.0231991 31.7839278 17.4575385 30.434577 14.8918778 31.7839278 15.3153495 28.8606387 13.3063419 26.8493939 16.1333993 26.3144009"
      />
  </g>
</svg>