<svg 
  viewBox="0 0 481 288" 
  preserveAspectRatio="none"
  xmlns="http://www.w3.org/2000/svg" 
>
  <g 
    id="silhuetas"
    transform="translate(1, 1)"
    stroke-width="1"
    fill="none"
    stroke="#4B4B4B"
  >
    <g id="homem">
        <path d="M346.666667,295.392117 C340.202954,283.448677 336.774515,275.481521 336.38135,271.490648 C335.791602,265.504339 336.38135,239.761797 333.460828,223.041076 C330.540306,206.320354 317.278032,199.83848 315.720421,197.501843 C314.162809,195.165206 289.782799,184.282548 279.132064,177.961626 C268.48133,171.640705 251.171241,168.027741 244.706588,163.488594 C238.241935,158.949447 223.825561,147.696059 217.854716,147.696059 C217.854716,147.696059 216.617844,145.865143 214.144101,142.203312 L216.278763,128.760942 C217.329398,125.50082 217.854716,123.870759 217.854716,123.870759 C224.731346,128.632981 229.651085,109.700887 229.651085,105.911312 C229.651085,99.8120539 232.862249,95.9915462 232.862249,91.6684145 C232.862249,87.3452827 233.556402,76.4753311 232.862249,52.1940704 C232.168096,27.9128097 220.639793,16.729424 194.184379,4.34312908 C167.728964,-8.04316587 146.007053,9.52467501 138.357261,14.1979494 C130.707468,18.8712238 121.409768,42.1486483 117.040272,48.7957104 C114.127275,53.2270852 113.486735,61.6738052 115.118653,74.1358702 C113.064411,79.444484 113.064411,83.6565491 115.118653,86.7720653 C118.200015,91.4453397 115.118653,103.467373 117.040272,112.257647 C118.321351,118.11783 121.177443,119.556521 125.608547,116.57372 L130.157225,137.923948 C127.658086,138.766361 124.742267,141.987767 121.409768,147.588166 C116.411019,155.988765 98.6127656,168.650374 85.9430615,173.497308 C73.2733574,178.344242 74.1734989,181.169384 63.2024945,184.282548 C52.2314902,187.395711 47.3173945,188.138352 42.647381,191.276929 C37.9773676,194.415505 36.9234401,195.532291 33.568367,197.501843 C31.3316516,198.814878 28.7958296,200.64795 25.960901,203.001059 C15.4093983,204.983318 10.0240686,208.826886 9.8049119,214.531763 C9.47617681,223.089079 9.8049119,228.403341 9.8049119,234.148221 C9.8049119,239.893101 0.51426583,244.553669 0.171421943,267.507776 C-0.0571406478,282.810514 -0.0571406478,292.105294 0.171421943,295.392117 L346.666667,295.392117 Z" id="Path-2"></path>
        <path d="M205.714286,166.07883 C195.574939,179.216089 189.383547,187.148011 187.140109,189.874594 C183.774952,193.964469 173.363284,208.087849 172.381779,209.598893 C171.400275,211.109938 170.494602,251.207138 173.363284,263.697684" id="Path-9"></path>
        <path d="M209.52381,162.275498 C205.599631,198.764672 202.591936,220.701789 200.500725,228.08685 C197.363908,239.164441 195.83971,268.297223 194.427791,275.755598 C193.486512,280.727849 193.015873,286.005578 193.015873,291.588785" id="Path-10"></path>
        <path d="M127.330718,141.991061 C125.175475,146.006527 125.175475,153.668673 127.330718,164.977499 C129.485962,176.286325 133.609983,194.402318 139.702782,219.325477 C145.097043,209.529671 148.133031,203.146206 148.810745,200.175083 C149.827315,195.718398 152.719431,187.506623 154.234348,186.949892 C155.749266,186.393162 167.194205,191.693464 168.676468,198.507732 C169.664643,203.050577 170.15873,206.310954 170.15873,208.288863" id="Path-11"></path>
        <path d="M139.68254,220.593255 C145.306452,248.068403 148.695104,264.609965 149.848493,270.21794 C151.001883,275.825914 153.539157,284.217307 157.460317,295.392117" id="Path-12"></path>
        <path d="M203.174603,211.718813 C197.167694,202.331026 193.773518,195.619108 192.992078,191.58306 C192.210637,187.547011 190.525447,186.602364 187.936508,188.749118" id="Path-14"></path>
        <path d="M129.228605,140.723283 C126.639796,149.074317 129.20824,158.18587 136.933935,168.057942 C144.659631,177.930014 153.61816,186.144751 163.809524,192.702154" id="Path-15"></path>
        <path d="M233.106399,85.7234079 C230.07438,80.2417739 226.830049,86.634521 225.44116,85.7234079 C221.238329,82.9663471 221.042645,78.0520416 220.325552,70.2052545 C219.689507,63.2453356 218.470968,52.0987649 216.669936,36.7655425 C175.233985,47.5980794 149.279206,52.1015563 138.805598,50.2759733 C128.331991,48.4503903 124.480958,61.2732035 127.252499,88.7444128 C124.471562,77.0781744 120.995862,72.1434244 116.825397,73.9401629" id="Path-16"></path>
    </g>
    <g 
      id="mulher" 
      transform="translate(191, 0)"
    >
        <path d="M147.159678,3.33300693 C168.74061,-4.73654275 181.03113,1.50778811 199.921889,25.7807486 C218.812648,50.053709 218.235527,77.3921797 216.116367,99.5260204 C213.997206,121.659861 207.789349,148.001505 216.116367,161.00772 C211.141124,161.00772 198.360509,159.276927 177.774524,155.81534 C165.794448,159.276927 154.917719,161.00772 145.144338,161.00772 C130.484266,161.00772 94.6814463,157.916179 80,153.758907 C94.0508892,133.565127 81.0840086,99.126371 83.6062371,74.5042915 C86.1284656,49.882212 98.6785373,-9.28734004 147.159678,3.33300693 Z" id="Path-3" fill="#B4B4B4"></path>
        <path d="M0,320.747664 C3.47121429,309.8529 5.35538284,303.067404 5.65250567,300.391175 C6.09818992,296.376831 9.71899018,289.130497 11.3588008,287.330014 C12.9986115,285.52953 12.623622,268.936297 14.7905695,265.782389 C16.957517,262.62848 18.8601277,257.185692 19.2151382,254.521711 C19.5701488,251.85773 18.6188435,218.960628 21.749391,216.109862 C24.8799386,213.259096 36.8642342,211.646929 40.9706767,208.569571 C45.0771191,205.492214 69.9263209,193.978917 85.2348062,191.238385 C100.543291,188.497853 107.875566,183.486813 108.770008,182.436531 C109.66445,181.386249 117.932661,174.740076 117.932661,171.361107 C117.932661,167.982138 120.11344,148.555747 117.932661,145.741725 C115.751882,142.927704 111.056061,138.042208 108.770008,130.041845 C107.245973,124.708269 106.483955,119.837063 106.483955,115.428225 C103.488137,114.576976 101.393421,111.648128 100.199807,106.641682 C98.4093861,99.1320113 98.8888808,96.3539691 98.4093861,94.1018335 C97.9298913,91.849698 98.0904913,77.9388184 106.483955,83.5630332 C107.40145,81.6385367 107.726492,55.4756415 125.183483,42.31726 C136.821477,33.5450057 143.541575,29.1588785 145.343779,29.1588785 C147.218726,35.056381 153.616088,40.4256805 164.535865,45.2667768 C180.915529,52.5284213 196.361529,71.2437902 198.020833,76.9431887 C199.127037,80.7427878 200.117033,83.871375 200.990823,86.3289504 C205.398892,84.997587 207.602927,87.5885481 207.602927,94.1018335 C207.602927,102.441113 200.971914,115.428225 198.020833,115.428225 C196.611549,120.10244 191.196235,141.588824 178.874602,150.807117 C178.874602,158.195071 177.707371,163.788665 178.874602,164.531211 C180.041834,165.273758 186.404361,165.639672 192.066088,172.246804 C197.727814,178.853936 201.289446,182.828473 205.969131,184.699384 C210.648815,186.570295 219.194426,189.619328 221.815511,191.238385 C224.436595,192.857443 254.109945,197.808773 261.181724,202.425574 C265.896244,205.503442 271.293121,208.44811 277.372357,211.25958 C283.817361,214.282841 287.078796,217.765664 287.156663,221.70805 C287.273463,227.621628 285.208715,255.478601 281.753126,262.975257 C281.753126,269.925338 287.156663,297.37659 287.156663,303.985253 C287.156663,308.391028 287.522431,313.978498 288.253968,320.747664 L0,320.747664 Z" id="Path-2" fill="#B4B4B4"></path>
        <path d="M118.095238,176.221048 C110.757533,191.783191 106.498748,202.770556 105.318883,209.183143 C103.549086,218.802024 83.4934498,251.021401 80.7743833,263.330165 C78.0553168,275.63893 67.3062406,301.69633 67.3015873,309.337668" id="Path-4"></path>
        <path d="M143.000226,255.214589 L107.936508,241.368318 L107.936508,202.057333 C116.841822,217.73076 124.953932,229.889238 132.272837,238.532767 C139.591742,247.176296 146.613259,253.451639 153.337389,257.358797 C176.332666,243.892292 190.828669,224.875633 196.825397,200.308818" id="Path-6"></path>
        <path d="M182.857143,172.417716 C191.71294,178.507295 196.879871,186.929321 198.357936,197.683795 C200.575032,213.815507 209.496918,265.166326 214.580976,282.634626 C217.970349,294.280159 219.111154,301.913396 218.003393,305.534336" id="Path-5"></path>
        <path d="M167.619048,253.555465 C186.472553,246.87261 196.854942,242.45068 198.766214,240.289674 C200.677487,238.128669 201.122653,232.830973 200.101713,224.396587" id="Path-7"></path>
    </g>
  </g>
</svg>