
<svg width="92px" height="91px" viewBox="0 0 92 91" version="1.1" xmlns="http://www.w3.org/2000/svg" xmlns:xlink="http://www.w3.org/1999/xlink">
    <!-- Generator: Sketch 51.2 (57519) - http://www.bohemiancoding.com/sketch -->
    <desc>Created with Sketch.</desc>
    <defs>
        <path d="M44.889588,0.832826291 C20.0976385,0.832826291 0,20.7456432 0,45.30677 C0,69.8691643 20.0976385,89.7807136 44.889588,89.7807136 C69.6815374,89.7807136 89.779176,69.8691643 89.779176,45.30677 C89.779176,20.7456432 69.6815374,0.832826291 44.889588,0.832826291 Z" id="path-1"></path>
    </defs>
    <g id="Page-1" stroke="none" stroke-width="1" fill="none" fill-rule="evenodd">
        <g id="1" transform="translate(-469.000000, -82.000000)">
            <g id="candidato1" transform="translate(470.000000, 82.000000)">
                <g id="foto">
                    <mask id="mask-2" fill="white">
                        <use xlink:href="#path-1"></use>
                    </mask>
                    <use id="Mask" stroke="#4B4B4B" xlink:href="#path-1"></use>
                    <path d="M28.0105399,33.1898545 C28.0105399,42.4256291 35.5669859,49.912108 44.8890762,49.912108 C54.2111665,49.912108 61.7688919,42.4256291 61.7688919,33.1898545 C61.7688919,23.9540798 54.2111665,16.4676009 44.8890762,16.4676009 C35.5669859,16.4676009 28.0105399,23.9540798 28.0105399,33.1898545 Z" id="Stroke-1" stroke="#4B4B4B" mask="url(#mask-2)"></path>
                    <path d="M16.6070365,78.7131221 C16.6070365,94.1880516 29.269777,106.733545 44.8893321,106.733545 C60.5088872,106.733545 73.1716277,94.1880516 73.1716277,78.7131221 C73.1716277,63.2381925 60.5088872,50.6926995 44.8893321,50.6926995 C29.269777,50.6926995 16.6070365,63.2381925 16.6070365,78.7131221 Z" id="Stroke-4" stroke="#4B4B4B" mask="url(#mask-2)"></path>
                </g>
            </g>
        </g>
    </g>
</svg>